<mxfile host="app.diagrams.net" modified="2023-05-18T07:59:35.512Z" agent="Mozilla/5.0 (X11; Ubuntu; Linux x86_64; rv:109.0) Gecko/20100101 Firefox/113.0" etag="uprwPnrIxVn6-bvf20t9" version="21.3.2" type="github">
  <diagram name="Page-1" id="51fq0KxajOtQhnPPGw-7">
    <mxGraphModel dx="1362" dy="795" grid="1" gridSize="10" guides="1" tooltips="1" connect="1" arrows="1" fold="1" page="1" pageScale="1" pageWidth="850" pageHeight="1100" math="0" shadow="0">
      <root>
        <mxCell id="0" />
        <mxCell id="1" parent="0" />
        <mxCell id="JJ9G1FrohhshMDPccMC3-4" value="" style="rounded=1;whiteSpace=wrap;html=1;fillColor=none;dashed=1;strokeWidth=2;" vertex="1" parent="1">
          <mxGeometry x="90" y="290" width="670" height="230" as="geometry" />
        </mxCell>
        <mxCell id="JJ9G1FrohhshMDPccMC3-9" style="edgeStyle=orthogonalEdgeStyle;rounded=0;orthogonalLoop=1;jettySize=auto;html=1;exitX=1;exitY=0.75;exitDx=0;exitDy=0;entryX=0;entryY=0.75;entryDx=0;entryDy=0;" edge="1" parent="1" source="JJ9G1FrohhshMDPccMC3-1" target="JJ9G1FrohhshMDPccMC3-2">
          <mxGeometry relative="1" as="geometry" />
        </mxCell>
        <mxCell id="JJ9G1FrohhshMDPccMC3-13" value="&lt;b style=&quot;font-size: 13px;&quot;&gt;关节扭矩&lt;/b&gt;" style="edgeLabel;html=1;align=center;verticalAlign=middle;resizable=0;points=[];fontSize=13;" vertex="1" connectable="0" parent="JJ9G1FrohhshMDPccMC3-9">
          <mxGeometry x="-0.2923" y="-2" relative="1" as="geometry">
            <mxPoint x="14" as="offset" />
          </mxGeometry>
        </mxCell>
        <mxCell id="JJ9G1FrohhshMDPccMC3-1" value="&lt;div&gt;&lt;br&gt;&lt;/div&gt;&lt;div&gt;控制算法&lt;/div&gt;&lt;div style=&quot;font-size: 16px;&quot;&gt;&lt;font style=&quot;font-size: 13px;&quot;&gt;LQR&lt;/font&gt;&lt;/div&gt;&lt;div style=&quot;font-size: 16px;&quot;&gt;&lt;font style=&quot;font-size: 13px;&quot;&gt;VMC&lt;/font&gt;&lt;br&gt;&lt;/div&gt;" style="rounded=1;whiteSpace=wrap;html=1;fontSize=17;fontStyle=1" vertex="1" parent="1">
          <mxGeometry x="150" y="335" width="100" height="140" as="geometry" />
        </mxCell>
        <mxCell id="JJ9G1FrohhshMDPccMC3-10" style="edgeStyle=orthogonalEdgeStyle;rounded=0;orthogonalLoop=1;jettySize=auto;html=1;exitX=0;exitY=0.25;exitDx=0;exitDy=0;entryX=1;entryY=0.25;entryDx=0;entryDy=0;" edge="1" parent="1" source="JJ9G1FrohhshMDPccMC3-2" target="JJ9G1FrohhshMDPccMC3-1">
          <mxGeometry relative="1" as="geometry" />
        </mxCell>
        <mxCell id="JJ9G1FrohhshMDPccMC3-11" style="edgeStyle=orthogonalEdgeStyle;rounded=0;orthogonalLoop=1;jettySize=auto;html=1;exitX=1;exitY=0.75;exitDx=0;exitDy=0;entryX=0;entryY=0.75;entryDx=0;entryDy=0;" edge="1" parent="1" source="JJ9G1FrohhshMDPccMC3-2" target="JJ9G1FrohhshMDPccMC3-7">
          <mxGeometry relative="1" as="geometry" />
        </mxCell>
        <mxCell id="JJ9G1FrohhshMDPccMC3-2" value="&lt;div&gt;ROS通讯&lt;/div&gt;" style="rounded=1;whiteSpace=wrap;html=1;fontSize=17;fontStyle=1" vertex="1" parent="1">
          <mxGeometry x="350" y="335" width="100" height="140" as="geometry" />
        </mxCell>
        <mxCell id="JJ9G1FrohhshMDPccMC3-5" value="Isaac Sim仿真链路" style="text;html=1;strokeColor=none;fillColor=none;align=center;verticalAlign=middle;whiteSpace=wrap;rounded=0;fontSize=16;fontStyle=0" vertex="1" parent="1">
          <mxGeometry x="580" y="300" width="150" height="30" as="geometry" />
        </mxCell>
        <mxCell id="JJ9G1FrohhshMDPccMC3-12" style="edgeStyle=orthogonalEdgeStyle;rounded=0;orthogonalLoop=1;jettySize=auto;html=1;exitX=0;exitY=0.25;exitDx=0;exitDy=0;entryX=1;entryY=0.25;entryDx=0;entryDy=0;" edge="1" parent="1" source="JJ9G1FrohhshMDPccMC3-7" target="JJ9G1FrohhshMDPccMC3-2">
          <mxGeometry relative="1" as="geometry" />
        </mxCell>
        <mxCell id="JJ9G1FrohhshMDPccMC3-14" value="&lt;div style=&quot;font-size: 13px;&quot;&gt;关节反馈&lt;/div&gt;&lt;div style=&quot;font-size: 13px;&quot;&gt;IMU&lt;br style=&quot;font-size: 13px;&quot;&gt;&lt;/div&gt;" style="edgeLabel;html=1;align=center;verticalAlign=middle;resizable=0;points=[];fontStyle=1;fontSize=13;" vertex="1" connectable="0" parent="JJ9G1FrohhshMDPccMC3-12">
          <mxGeometry x="0.2167" y="3" relative="1" as="geometry">
            <mxPoint x="13" as="offset" />
          </mxGeometry>
        </mxCell>
        <mxCell id="JJ9G1FrohhshMDPccMC3-7" value="&lt;div&gt;&amp;nbsp;&amp;nbsp;&amp;nbsp;&amp;nbsp;&amp;nbsp;&amp;nbsp;&amp;nbsp;&amp;nbsp;&amp;nbsp;&amp;nbsp; Isaac Sim&lt;/div&gt;&lt;div style=&quot;font-size: 13px;&quot;&gt;&amp;nbsp;&amp;nbsp;&amp;nbsp;&amp;nbsp;&amp;nbsp;&amp;nbsp;&amp;nbsp;&amp;nbsp;&amp;nbsp;&amp;nbsp;&amp;nbsp;&amp;nbsp; usd模型&lt;br&gt;&lt;/div&gt;" style="rounded=1;whiteSpace=wrap;html=1;fontSize=17;fontStyle=1" vertex="1" parent="1">
          <mxGeometry x="550" y="335" width="150" height="140" as="geometry" />
        </mxCell>
        <mxCell id="JJ9G1FrohhshMDPccMC3-15" value="&lt;div&gt;&lt;font style=&quot;font-size: 13px;&quot;&gt;&lt;b&gt;接口&lt;/b&gt;&lt;/font&gt;&lt;/div&gt;&lt;div&gt;&lt;font style=&quot;font-size: 13px;&quot;&gt;&lt;b&gt;脚本&lt;/b&gt;&lt;/font&gt;&lt;/div&gt;" style="rounded=1;whiteSpace=wrap;html=1;" vertex="1" parent="1">
          <mxGeometry x="550" y="335" width="50" height="140" as="geometry" />
        </mxCell>
      </root>
    </mxGraphModel>
  </diagram>
</mxfile>
